<svg xmlns="http://www.w3.org/2000/svg" width="24px" height="24px" viewBox="0 0 24 24"><path d="M12,6.23h0L7.28,8.33v3.15A6.73,6.73,0,0,0,10,16.79a5.75,5.75,0,0,0,2,1h0Z" fill="#669df6"/><path d="M12,17.77a6.52,6.52,0,0,0,4.72-6.29V8.33L12,6.23Z" fill="#4285f4"/><path d="M17.08,11.62c0,.26,0,.51-.06.76H19.4v-.76Z" fill="#4285f4"/><path d="M6.92,11.62c0,.26,0,.51.06.76H4.6v-.76Z" fill="#4285f4"/><path d="M3.59,12.73a.73.73,0,0,1,0-1.46v-.6a1.33,1.33,0,1,0,0,2.66Z" fill="#669df6"/><path d="M20.41,12.73a.73.73,0,0,1,0-1.46v-.6a1.33,1.33,0,1,0,0,2.66Z" fill="#4285f4"/><circle cx="3.59" cy="12" r="0.73" fill="#669df6"/><circle cx="20.41" cy="12" r="0.73" fill="#4285f4"/></svg>
